<?xml version="1.0" standalone="no"?>
<!DOCTYPE svg PUBLIC "-//W3C//DTD SVG 20010904//EN"
 "http://www.w3.org/TR/2001/REC-SVG-20010904/DTD/svg10.dtd">
<svg version="1.0" xmlns="http://www.w3.org/2000/svg"
 width="143.000000pt" height="143.000000pt" viewBox="0 0 143.000000 143.000000"
 preserveAspectRatio="xMidYMid meet">
<metadata>
Created by potrace 1.14, written by Peter Selinger 2001-2017
</metadata>
<g transform="translate(0.000000,143.000000) scale(0.100000,-0.100000)"
fill="#000000" stroke="none">
<path d="M233 1369 c-44 -13 -100 -70 -112 -116 -7 -24 -11 -221 -11 -543 0
-468 2 -508 19 -545 20 -44 69 -92 104 -100 12 -3 231 -4 487 -3 l465 3 34 24
c18 13 42 42 52 65 17 38 19 76 19 564 0 494 -1 525 -19 560 -10 20 -28 45
-39 55 -48 44 -75 46 -532 46 -239 -1 -450 -5 -467 -10z m561 -270 c28 -13 42
-44 52 -114 5 -34 16 -61 35 -83 16 -18 29 -44 29 -58 0 -13 7 -27 15 -30 20
-8 19 -58 -2 -79 -13 -14 -14 -21 -5 -36 14 -22 16 -79 3 -79 -5 0 -12 -16
-15 -35 -4 -19 -17 -42 -30 -52 -17 -14 -25 -33 -31 -78 -13 -111 -30 -124
-152 -125 -120 0 -138 13 -153 115 -9 57 -16 74 -38 92 -27 21 -27 23 -30 163
-4 149 4 189 40 214 12 9 22 34 29 76 11 71 21 95 47 109 23 14 175 14 206 0z"/>
<path d="M554 906 c-57 -25 -64 -47 -64 -186 0 -102 3 -130 17 -150 32 -47 42
-49 178 -50 112 0 135 3 162 20 44 27 56 74 51 201 -4 115 -14 140 -64 164
-42 20 -235 20 -280 1z"/>
</g>
</svg>
